Alegreya Sans SC-Black.ufo
<glyph name="quotedbl" format="1">
  <advance width="443"/>
  <unicode hex="0022"/>
  <outline>
    <contour>
      <point x="53" y="637" type="line"/>
      <point x="63" y="369" type="line"/>
      <point x="78" y="358" type="line"/>
      <point x="166" y="372" type="line"/>
      <point x="214" y="634" type="line"/>
      <point x="204" y="646" type="line"/>
    </contour>
    <contour>
      <point x="246" y="637" type="line"/>
      <point x="256" y="369" type="line"/>
      <point x="271" y="358" type="line"/>
      <point x="359" y="372" type="line"/>
      <point x="407" y="634" type="line"/>
      <point x="397" y="646" type="line"/>
    </contour>
  </outline>
</glyph>
<glyph name="asterisk" format="1">
  <advance width="394"/>
  <unicode hex="002A"/>
  <outline>
    <contour>
      <point x="32" y="452" type="line"/>
      <point x="31" y="440" type="line"/>
      <point x="60" y="422"/>
      <point x="91" y="406"/>
      <point x="120" y="398" type="curve"/>
      <point x="184" y="498" type="line"/>
      <point x="182" y="509" type="line"/>
      <point x="136" y="533" type="line"/>
    </contour>
    <contour>
      <point x="29" y="676" type="line"/>
      <point x="20" y="643"/>
      <point x="15" y="609"/>
      <point x="16" y="579" type="curve"/>
      <point x="130" y="549" type="line"/>
      <point x="141" y="554" type="line"/>
      <point x="150" y="605" type="line"/>
      <point x="41" y="679" type="line"/>
    </contour>
    <contour>
      <point x="201" y="499" type="line"/>
      <point x="246" y="374" type="line"/>
      <point x="256" y="370" type="line"/>
      <point x="283" y="392"/>
      <point x="307" y="415"/>
      <point x="325" y="440" type="curve"/>
      <point x="250" y="533" type="line"/>
      <point x="238" y="534" type="line"/>
    </contour>
    <contour>
      <point x="219" y="750"/>
      <point x="184" y="744"/>
      <point x="156" y="734" type="curve"/>
      <point x="162" y="616" type="line"/>
      <point x="171" y="608" type="line"/>
      <point x="222" y="614" type="line"/>
      <point x="258" y="741" type="line"/>
      <point x="253" y="751" type="line"/>
    </contour>
    <contour>
      <point x="236" y="606" type="line"/>
      <point x="231" y="595" type="line"/>
      <point x="254" y="549" type="line"/>
      <point x="386" y="553" type="line"/>
      <point x="393" y="561" type="line"/>
      <point x="381" y="594"/>
      <point x="365" y="624"/>
      <point x="348" y="648" type="curve"/>
    </contour>
  </outline>
</glyph>
<glyph name="comma" format="1">
  <advance width="228"/>
  <unicode hex="002C"/>
  <outline>
    <contour>
      <point x="110" y="170"/>
      <point x="63" y="150"/>
      <point x="18" y="125" type="curve"/>
      <point x="17" y="109" type="line"/>
      <point x="40" y="86"/>
      <point x="50" y="63"/>
      <point x="50" y="34" type="curve" smooth="yes"/>
      <point x="50" y="-8"/>
      <point x="32" y="-42"/>
      <point x="-6" y="-75" type="curve"/>
      <point x="-4" y="-89" type="line"/>
      <point x="57" y="-142" type="line"/>
      <point x="161" y="-70"/>
      <point x="209" y="-1"/>
      <point x="209" y="77" type="curve" smooth="yes"/>
      <point x="209" y="119"/>
      <point x="194" y="152"/>
      <point x="161" y="183" type="curve"/>
    </contour>
  </outline>
</glyph>
<glyph name="slash" format="1">
  <advance width="280"/>
  <unicode hex="002F"/>
  <outline>
    <contour>
      <point x="180" y="683" type="line"/>
      <point x="-28" y="-103" type="line"/>
      <point x="-17" y="-118" type="line"/>
      <point x="118" y="-118" type="line"/>
      <point x="326" y="667" type="line"/>
      <point x="311" y="683" type="line"/>
    </contour>
  </outline>
</glyph>
<glyph name="D" format="1">
  <advance width="665"/>
  <unicode hex="0044"/>
  <outline>
    <contour>
      <point x="60" y="647" type="line"/>
      <point x="240" y="489" type="line"/>
      <point x="275" y="493"/>
      <point x="311" y="495"/>
      <point x="335" y="495" type="curve" smooth="yes"/>
      <point x="411" y="495"/>
      <point x="438" y="446"/>
      <point x="438" y="301" type="curve" smooth="yes"/>
      <point x="438" y="181"/>
      <point x="401" y="140"/>
      <point x="342" y="140" type="curve" smooth="yes"/>
      <point x="316" y="140"/>
      <point x="265" y="146"/>
      <point x="233" y="152" type="curve"/>
      <point x="60" y="0" type="line"/>
      <point x="138" y="-5"/>
      <point x="239" y="-9"/>
      <point x="304" y="-9" type="curve" smooth="yes"/>
      <point x="525" y="-9"/>
      <point x="648" y="119"/>
      <point x="648" y="350" type="curve" smooth="yes"/>
      <point x="648" y="544"/>
      <point x="543" y="651"/>
      <point x="352" y="651" type="curve"/>
    </contour>
    <contour>
      <point x="60" y="647" type="line"/>
      <point x="70" y="190" type="line"/>
      <point x="60" y="0" type="line"/>
      <point x="261" y="0" type="line"/>
      <point x="253" y="210" type="line"/>
      <point x="264" y="647" type="line"/>
    </contour>
    <contour>
      <point x="333" y="324" type="move" name="center"/>
    </contour>
    <contour>
      <point x="328" y="647" type="move" name="top"/>
    </contour>
  </outline>
</glyph>
<glyph name="O" format="1">
  <advance width="653"/>
  <unicode hex="004F"/>
  <outline>
    <contour>
      <point x="135" y="659"/>
      <point x="17" y="533"/>
      <point x="17" y="312" type="curve" smooth="yes"/>
      <point x="17" y="106"/>
      <point x="124" y="-12"/>
      <point x="312" y="-12" type="curve" smooth="yes"/>
      <point x="518" y="-12"/>
      <point x="636" y="116"/>
      <point x="636" y="340" type="curve" smooth="yes"/>
      <point x="636" y="543"/>
      <point x="529" y="659"/>
      <point x="341" y="659" type="curve" smooth="yes"/>
    </contour>
    <contour>
      <point x="404" y="499"/>
      <point x="426" y="458"/>
      <point x="426" y="297" type="curve" smooth="yes"/>
      <point x="426" y="169"/>
      <point x="405" y="136"/>
      <point x="330" y="136" type="curve" smooth="yes"/>
      <point x="249" y="136"/>
      <point x="227" y="177"/>
      <point x="227" y="339" type="curve" smooth="yes"/>
      <point x="227" y="466"/>
      <point x="248" y="499"/>
      <point x="323" y="499" type="curve" smooth="yes"/>
    </contour>
    <contour>
      <point x="327" y="647" type="move" name="top"/>
    </contour>
  </outline>
</glyph>
<glyph name="U" format="1">
  <advance width="653"/>
  <unicode hex="0055"/>
  <outline>
    <contour>
      <point x="403" y="647" type="line"/>
      <point x="412" y="243" type="line" smooth="yes"/>
      <point x="413" y="175"/>
      <point x="387" y="146"/>
      <point x="324" y="146" type="curve" smooth="yes"/>
      <point x="262" y="146"/>
      <point x="237" y="175"/>
      <point x="238" y="243" type="curve" smooth="yes"/>
      <point x="247" y="647" type="line"/>
      <point x="46" y="647" type="line"/>
      <point x="52" y="319" type="line"/>
      <point x="49" y="216" type="line" smooth="yes"/>
      <point x="45" y="69"/>
      <point x="141" y="-12"/>
      <point x="316" y="-12" type="curve" smooth="yes"/>
      <point x="497" y="-12"/>
      <point x="598" y="69"/>
      <point x="599" y="216" type="curve" smooth="yes"/>
      <point x="600" y="319" type="line"/>
      <point x="607" y="647" type="line"/>
    </contour>
    <contour>
      <point x="589" y="10" type="move" name="ogonek"/>
    </contour>
    <contour>
      <point x="327" y="647" type="move" name="top"/>
    </contour>
  </outline>
</glyph>
<glyph name="Y" format="1">
  <advance width="594"/>
  <unicode hex="0059"/>
  <outline>
    <contour>
      <point x="410" y="647" type="line"/>
      <point x="387" y="586" type="line"/>
      <point x="303" y="398" type="line"/>
      <point x="291" y="398" type="line"/>
      <point x="218" y="593" type="line"/>
      <point x="202" y="647" type="line"/>
      <point x="-8" y="647" type="line"/>
      <point x="254" y="82" type="line"/>
      <point x="318" y="82" type="line"/>
      <point x="614" y="647" type="line"/>
    </contour>
    <contour>
      <point x="195" y="283" type="line"/>
      <point x="200" y="170" type="line"/>
      <point x="190" y="0" type="line"/>
      <point x="390" y="0" type="line"/>
      <point x="382" y="170" type="line"/>
      <point x="388" y="283" type="line"/>
    </contour>
    <contour>
      <point x="297" y="647" type="move" name="top"/>
    </contour>
  </outline>
</glyph>
<glyph name="asciicircum" format="1">
  <advance width="460"/>
  <unicode hex="005E"/>
  <outline>
    <contour>
      <point x="159" y="502" type="line"/>
      <point x="142" y="491" type="line"/>
      <point x="12" y="151" type="line"/>
      <point x="123" y="111" type="line"/>
      <point x="136" y="118" type="line"/>
      <point x="228" y="370" type="line"/>
      <point x="237" y="370" type="line"/>
      <point x="328" y="119" type="line"/>
      <point x="436" y="145" type="line"/>
      <point x="449" y="161" type="line"/>
      <point x="315" y="502" type="line"/>
    </contour>
  </outline>
</glyph>
<glyph name="e" format="1">
  <advance width="480"/>
  <unicode hex="0065"/>
  <outline>
    <contour>
      <point x="53" y="513" type="line"/>
      <point x="62" y="149" type="line"/>
      <point x="53" y="0" type="line"/>
      <point x="239" y="0" type="line"/>
      <point x="231" y="168" type="line"/>
      <point x="242" y="513" type="line"/>
    </contour>
    <contour>
      <point x="311" y="142" type="line"/>
      <point x="177" y="142" type="line"/>
      <point x="177" y="10" type="line"/>
      <point x="177" y="0" type="line"/>
      <point x="450" y="0" type="line"/>
      <point x="461" y="135" type="line"/>
      <point x="451" y="147" type="line"/>
    </contour>
    <contour>
      <point x="316" y="327" type="line"/>
      <point x="186" y="327" type="line"/>
      <point x="187" y="195" type="line"/>
      <point x="186" y="185" type="line"/>
      <point x="304" y="185" type="line"/>
      <point x="402" y="182" type="line"/>
      <point x="413" y="317" type="line"/>
      <point x="403" y="330" type="line"/>
    </contour>
    <contour>
      <point x="177" y="513" type="line"/>
      <point x="177" y="381" type="line"/>
      <point x="177" y="371" type="line"/>
      <point x="321" y="371" type="line"/>
      <point x="456" y="365" type="line"/>
      <point x="467" y="500" type="line"/>
      <point x="457" y="513" type="line"/>
    </contour>
    <contour>
      <point x="259" y="0" type="move" name="bottom"/>
    </contour>
    <contour>
      <point x="454" y="8" type="move" name="ogonek"/>
    </contour>
    <contour>
      <point x="254" y="513" type="move" name="top"/>
    </contour>
  </outline>
</glyph>
<glyph name="f" format="1">
  <advance width="425"/>
  <unicode hex="0066"/>
  <outline>
    <contour>
      <point x="49" y="513" type="line"/>
      <point x="58" y="149" type="line"/>
      <point x="49" y="0" type="line"/>
      <point x="235" y="0" type="line"/>
      <point x="227" y="168" type="line"/>
      <point x="238" y="513" type="line"/>
    </contour>
    <contour>
      <point x="283" y="305" type="line"/>
      <point x="182" y="305" type="line"/>
      <point x="182" y="163" type="line"/>
      <point x="270" y="163" type="line"/>
      <point x="381" y="160" type="line"/>
      <point x="392" y="295" type="line"/>
      <point x="382" y="308" type="line"/>
    </contour>
    <contour>
      <point x="173" y="513" type="line"/>
      <point x="173" y="381" type="line"/>
      <point x="173" y="371" type="line"/>
      <point x="287" y="371" type="line"/>
      <point x="423" y="365" type="line"/>
      <point x="435" y="500" type="line"/>
      <point x="425" y="513" type="line"/>
    </contour>
  </outline>
</glyph>
<glyph name="i" format="1">
  <advance width="303"/>
  <unicode hex="0069"/>
  <outline>
    <contour>
      <point x="53" y="513" type="line"/>
      <point x="62" y="149" type="line"/>
      <point x="53" y="0" type="line"/>
      <point x="239" y="0" type="line"/>
      <point x="231" y="168" type="line"/>
      <point x="242" y="513" type="line"/>
    </contour>
    <contour>
      <point x="241" y="8" type="move" name="ogonek"/>
    </contour>
    <contour>
      <point x="153" y="513" type="move" name="top"/>
    </contour>
  </outline>
</glyph>
<glyph name="j" format="1">
  <advance width="346"/>
  <unicode hex="006A"/>
  <outline>
    <contour>
      <point x="98" y="513" type="line"/>
      <point x="106" y="150" type="line"/>
      <point x="106" y="98" type="line"/>
      <point x="106" y="54"/>
      <point x="87" y="31"/>
      <point x="30" y="8" type="curve"/>
      <point x="30" y="-6" type="line"/>
      <point x="81" y="-99" type="line"/>
      <point x="230" y="-52"/>
      <point x="278" y="-1"/>
      <point x="278" y="99" type="curve"/>
      <point x="276" y="168" type="line"/>
      <point x="285" y="513" type="line"/>
    </contour>
    <contour>
      <point x="24" y="513" type="line"/>
      <point x="13" y="386" type="line"/>
      <point x="23" y="375" type="line"/>
      <point x="119" y="378" type="line"/>
      <point x="118" y="513" type="line"/>
    </contour>
  </outline>
</glyph>
<glyph name="k" format="1">
  <advance width="556"/>
  <unicode hex="006B"/>
  <outline>
    <contour>
      <point x="353" y="513" type="line"/>
      <point x="325" y="454" type="line"/>
      <point x="214" y="272" type="line"/>
      <point x="214" y="261" type="line"/>
      <point x="260" y="172"/>
      <point x="307" y="87"/>
      <point x="356" y="1" type="curve"/>
      <point x="377" y="-10" type="line"/>
      <point x="439" y="-5"/>
      <point x="500" y="5"/>
      <point x="562" y="19" type="curve"/>
      <point x="565" y="39" type="line"/>
      <point x="506" y="114"/>
      <point x="450" y="191"/>
      <point x="398" y="270" type="curve"/>
      <point x="548" y="513" type="line"/>
    </contour>
    <contour>
      <point x="53" y="513" type="line"/>
      <point x="62" y="149" type="line"/>
      <point x="53" y="0" type="line"/>
      <point x="239" y="0" type="line"/>
      <point x="231" y="168" type="line"/>
      <point x="242" y="513" type="line"/>
    </contour>
    <contour>
      <point x="263" y="0" type="move" name="bottom"/>
    </contour>
    <contour>
      <point x="265" y="513" type="move" name="top"/>
    </contour>
  </outline>
</glyph>
<glyph name="l" format="1">
  <advance width="402"/>
  <unicode hex="006C"/>
  <outline>
    <contour>
      <point x="48" y="513" type="line"/>
      <point x="57" y="149" type="line"/>
      <point x="48" y="0" type="line"/>
      <point x="234" y="0" type="line"/>
      <point x="226" y="168" type="line"/>
      <point x="237" y="513" type="line"/>
    </contour>
    <contour>
      <point x="163" y="151" type="line"/>
      <point x="163" y="10" type="line"/>
      <point x="163" y="0" type="line"/>
      <point x="381" y="0" type="line"/>
      <point x="392" y="139" type="line"/>
      <point x="382" y="151" type="line"/>
    </contour>
    <contour>
      <point x="189" y="0" type="move" name="bottom"/>
    </contour>
    <contour>
      <point x="184" y="513" type="move" name="top"/>
    </contour>
  </outline>
</glyph>
<glyph name="m" format="1">
  <advance width="691"/>
  <unicode hex="006D"/>
  <outline>
    <contour>
      <point x="406" y="513" type="line"/>
      <point x="388" y="433" type="line"/>
      <point x="351" y="289" type="line"/>
      <point x="340" y="289" type="line"/>
      <point x="308" y="441" type="line"/>
      <point x="295" y="513" type="line"/>
      <point x="75" y="513" type="line"/>
      <point x="24" y="0" type="line"/>
      <point x="182" y="0" type="line"/>
      <point x="188" y="173" type="line"/>
      <point x="196" y="243" type="line"/>
      <point x="207" y="243" type="line"/>
      <point x="264" y="44" type="line"/>
      <point x="405" y="44" type="line"/>
      <point x="479" y="243" type="line"/>
      <point x="489" y="243" type="line"/>
      <point x="495" y="155" type="line"/>
      <point x="496" y="0" type="line"/>
      <point x="663" y="0" type="line"/>
      <point x="621" y="513" type="line"/>
    </contour>
  </outline>
</glyph>
<glyph name="u" format="1">
  <advance width="566"/>
  <unicode hex="0075"/>
  <outline>
    <contour>
      <point x="336" y="513" type="line"/>
      <point x="344" y="194" type="line" smooth="yes"/>
      <point x="345" y="151"/>
      <point x="327" y="135"/>
      <point x="281" y="135" type="curve" smooth="yes"/>
      <point x="235" y="135"/>
      <point x="218" y="151"/>
      <point x="219" y="194" type="curve" smooth="yes"/>
      <point x="227" y="513" type="line"/>
      <point x="42" y="513" type="line"/>
      <point x="47" y="252" type="line"/>
      <point x="45" y="169" type="line" smooth="yes"/>
      <point x="41" y="53"/>
      <point x="123" y="-11"/>
      <point x="273" y="-11" type="curve" smooth="yes"/>
      <point x="429" y="-11"/>
      <point x="516" y="53"/>
      <point x="517" y="169" type="curve" smooth="yes"/>
      <point x="518" y="253" type="line"/>
      <point x="524" y="513" type="line"/>
    </contour>
    <contour>
      <point x="500" y="8" type="move" name="ogonek"/>
    </contour>
    <contour>
      <point x="283" y="513" type="move" name="top"/>
    </contour>
  </outline>
</glyph>
<glyph name="v" format="1">
  <advance width="540"/>
  <unicode hex="0076"/>
  <outline>
    <contour>
      <point x="355" y="513" type="line"/>
      <point x="339" y="407" type="line"/>
      <point x="274" y="163" type="line"/>
      <point x="263" y="163" type="line"/>
      <point x="212" y="418" type="line"/>
      <point x="196" y="513" type="line"/>
      <point x="9" y="513" type="line"/>
      <point x="152" y="0" type="line"/>
      <point x="377" y="0" type="line"/>
      <point x="536" y="513" type="line"/>
    </contour>
  </outline>
</glyph>
<glyph name="z" format="1">
  <advance width="499"/>
  <unicode hex="007A"/>
  <outline>
    <contour>
      <point x="398" y="513" type="line"/>
      <point x="171" y="513" type="line"/>
      <point x="37" y="515" type="line"/>
      <point x="24" y="374" type="line"/>
      <point x="30" y="367" type="line"/>
      <point x="137" y="376" type="line"/>
      <point x="251" y="376" type="line"/>
      <point x="30" y="126" type="line"/>
      <point x="30" y="-5" type="line"/>
      <point x="120" y="0" type="line"/>
      <point x="305" y="0" type="line"/>
      <point x="465" y="-5" type="line"/>
      <point x="479" y="137" type="line"/>
      <point x="474" y="144" type="line"/>
      <point x="366" y="136" type="line"/>
      <point x="249" y="136" type="line"/>
      <point x="466" y="381" type="line"/>
      <point x="466" y="513" type="line"/>
    </contour>
    <contour>
      <point x="237" y="513" type="move" name="top"/>
    </contour>
  </outline>
</glyph>
<glyph name="section" format="1">
  <advance width="445"/>
  <unicode hex="00A7"/>
  <outline>
    <contour>
      <point x="104" y="421"/>
      <point x="13" y="329"/>
      <point x="13" y="231" type="curve" smooth="yes"/>
      <point x="13" y="76"/>
      <point x="235" y="86"/>
      <point x="235" y="41" type="curve" smooth="yes"/>
      <point x="235" y="33"/>
      <point x="228" y="25"/>
      <point x="205" y="25" type="curve" smooth="yes"/>
      <point x="166" y="25"/>
      <point x="105" y="49"/>
      <point x="54" y="88" type="curve"/>
      <point x="38" y="77" type="line"/>
      <point x="14" y="-68" type="line"/>
      <point x="67" y="-85"/>
      <point x="140" y="-95"/>
      <point x="185" y="-95" type="curve" smooth="yes"/>
      <point x="311" y="-95"/>
      <point x="400" y="-17"/>
      <point x="400" y="75" type="curve" smooth="yes"/>
      <point x="400" y="222"/>
      <point x="177" y="200"/>
      <point x="177" y="283" type="curve" smooth="yes"/>
      <point x="177" y="312"/>
      <point x="204" y="339"/>
      <point x="255" y="351" type="curve"/>
      <point x="230" y="421" type="line"/>
    </contour>
    <contour>
      <point x="142" y="659"/>
      <point x="51" y="579"/>
      <point x="51" y="485" type="curve" smooth="yes"/>
      <point x="51" y="337"/>
      <point x="273" y="360"/>
      <point x="273" y="277" type="curve" smooth="yes"/>
      <point x="273" y="248"/>
      <point x="246" y="221"/>
      <point x="190" y="209" type="curve"/>
      <point x="223" y="143" type="line"/>
      <point x="348" y="143"/>
      <point x="438" y="233"/>
      <point x="438" y="330" type="curve" smooth="yes"/>
      <point x="438" y="482"/>
      <point x="215" y="472"/>
      <point x="215" y="518" type="curve" smooth="yes"/>
      <point x="215" y="527"/>
      <point x="224" y="535"/>
      <point x="243" y="535" type="curve" smooth="yes"/>
      <point x="271" y="535"/>
      <point x="319" y="518"/>
      <point x="367" y="488" type="curve"/>
      <point x="389" y="496" type="line"/>
      <point x="412" y="634" type="line"/>
      <point x="372" y="649"/>
      <point x="313" y="659"/>
      <point x="268" y="659" type="curve" smooth="yes"/>
    </contour>
  </outline>
</glyph>
<glyph name="logicalnot" format="1">
  <advance width="480"/>
  <unicode hex="00AC"/>
  <outline>
    <contour>
      <point x="24" y="320" type="line"/>
      <point x="15" y="203" type="line"/>
      <point x="27" y="190" type="line"/>
      <point x="310" y="190" type="line"/>
      <point x="310" y="41" type="line"/>
      <point x="323" y="29" type="line"/>
      <point x="440" y="38" type="line"/>
      <point x="440" y="311" type="line"/>
      <point x="434" y="320" type="line"/>
    </contour>
  </outline>
</glyph>
<glyph name="cedilla" format="1">
  <advance width="388"/>
  <unicode hex="00B8"/>
  <outline>
    <contour>
      <point x="153" y="33" type="line"/>
      <point x="131" y="-79" type="line"/>
      <point x="181" y="-106" type="line" smooth="yes"/>
      <point x="189" y="-110"/>
      <point x="193" y="-114"/>
      <point x="193" y="-121" type="curve" smooth="yes"/>
      <point x="193" y="-130"/>
      <point x="188" y="-135"/>
      <point x="177" y="-135" type="curve" smooth="yes"/>
      <point x="163" y="-135"/>
      <point x="138" y="-125"/>
      <point x="117" y="-107" type="curve"/>
      <point x="109" y="-110" type="line"/>
      <point x="98" y="-185" type="line"/>
      <point x="125" y="-200"/>
      <point x="155" y="-209"/>
      <point x="190" y="-209" type="curve" smooth="yes"/>
      <point x="259" y="-209"/>
      <point x="300" y="-173"/>
      <point x="300" y="-125" type="curve" smooth="yes"/>
      <point x="300" y="-101"/>
      <point x="290" y="-80"/>
      <point x="256" y="-62" type="curve" smooth="yes"/>
      <point x="222" y="-43" type="line"/>
      <point x="236" y="33" type="line"/>
    </contour>
    <contour>
      <point x="190" y="-1" type="move" name="_bottom"/>
    </contour>
  </outline>
</glyph>
<glyph name="AE" format="1">
  <advance width="840"/>
  <unicode hex="00C6"/>
  <outline>
    <contour>
      <point x="256" y="647" type="line"/>
      <point x="-20" y="0" type="line"/>
      <point x="176" y="0" type="line"/>
      <point x="210" y="119" type="line"/>
      <point x="345" y="468" type="line"/>
      <point x="357" y="468" type="line"/>
      <point x="387" y="107" type="line"/>
      <point x="392" y="0" type="line"/>
      <point x="828" y="0" type="line"/>
      <point x="840" y="146" type="line"/>
      <point x="829" y="160" type="line"/>
      <point x="664" y="154" type="line"/>
      <point x="573" y="154" type="line"/>
      <point x="549" y="493" type="line"/>
      <point x="625" y="493" type="line"/>
      <point x="774" y="487" type="line"/>
      <point x="787" y="633" type="line"/>
      <point x="776" y="647" type="line"/>
    </contour>
    <contour>
      <point x="521" y="368" type="line"/>
      <point x="161" y="258" type="line"/>
      <point x="115" y="92" type="line"/>
      <point x="542" y="222" type="line"/>
      <point x="758" y="284" type="line"/>
      <point x="740" y="422" type="line"/>
      <point x="726" y="433" type="line"/>
    </contour>
    <contour>
      <point x="507" y="647" type="move" name="top"/>
    </contour>
  </outline>
</glyph>
<glyph name="Hbar" format="1">
  <advance width="744"/>
  <unicode hex="0126"/>
  <outline>
    <contour>
      <point x="16" y="573" type="line"/>
      <point x="10" y="482" type="line"/>
      <point x="18" y="472" type="line"/>
      <point x="729" y="472" type="line"/>
      <point x="734" y="563" type="line"/>
      <point x="726" y="573" type="line"/>
    </contour>
    <component base="H" xOffset="13"/>
  </outline>
</glyph>
<glyph name="Iogonek" format="1">
  <advance width="327"/>
  <unicode hex="012E"/>
  <outline>
    <contour>
      <point x="60" y="0" type="line"/>
      <point x="37" y="-38"/>
      <point x="29" y="-67"/>
      <point x="29" y="-98" type="curve" smooth="yes"/>
      <point x="29" y="-154"/>
      <point x="68" y="-197"/>
      <point x="133" y="-197" type="curve" smooth="yes"/>
      <point x="170" y="-197"/>
      <point x="208" y="-183"/>
      <point x="250" y="-148" type="curve"/>
      <point x="238" y="-75" type="line"/>
      <point x="228" y="-75" type="line"/>
      <point x="207" y="-92"/>
      <point x="178" y="-99"/>
      <point x="160" y="-99" type="curve" smooth="yes"/>
      <point x="135" y="-99"/>
      <point x="125" y="-85"/>
      <point x="125" y="-68" type="curve" smooth="yes"/>
      <point x="125" y="-50"/>
      <point x="133" y="-25"/>
      <point x="159" y="12" type="curve"/>
    </contour>
    <component base="I"/>
  </outline>
</glyph>
<glyph name="iogonek" format="1">
  <advance width="303"/>
  <unicode hex="012F"/>
  <outline>
    <contour>
      <point x="53" y="0" type="line"/>
      <point x="30" y="-38"/>
      <point x="22" y="-67"/>
      <point x="22" y="-98" type="curve" smooth="yes"/>
      <point x="22" y="-154"/>
      <point x="61" y="-197"/>
      <point x="126" y="-197" type="curve" smooth="yes"/>
      <point x="163" y="-197"/>
      <point x="201" y="-183"/>
      <point x="243" y="-148" type="curve"/>
      <point x="231" y="-75" type="line"/>
      <point x="221" y="-75" type="line"/>
      <point x="200" y="-92"/>
      <point x="171" y="-99"/>
      <point x="153" y="-99" type="curve" smooth="yes"/>
      <point x="128" y="-99"/>
      <point x="118" y="-85"/>
      <point x="118" y="-68" type="curve" smooth="yes"/>
      <point x="118" y="-50"/>
      <point x="126" y="-25"/>
      <point x="152" y="12" type="curve"/>
    </contour>
    <component base="i"/>
  </outline>
</glyph>
<glyph name="dotlessi" format="1">
  <advance width="303"/>
  <unicode hex="0131"/>
  <outline>
    <component base="i"/>
    <contour>
      <point x="241" y="8" type="move" name="ogonek"/>
    </contour>
    <contour>
      <point x="153" y="513" type="move" name="top"/>
    </contour>
  </outline>
</glyph>
<glyph name="ldot" format="1">
  <advance width="462"/>
  <unicode hex="0140"/>
  <outline>
    <contour>
      <point x="192" y="-89" type="move"/>
    </contour>
    <component base="l"/>
    <component base="periodcentered" xOffset="252" yOffset="76"/>
  </outline>
</glyph>
<glyph name="tcedilla" format="1">
  <advance width="457"/>
  <unicode hex="0163"/>
  <outline>
    <contour>
      <point x="192" y="33" type="line"/>
      <point x="170" y="-79" type="line"/>
      <point x="220" y="-106" type="line" smooth="yes"/>
      <point x="228" y="-110"/>
      <point x="232" y="-114"/>
      <point x="232" y="-121" type="curve" smooth="yes"/>
      <point x="232" y="-130"/>
      <point x="227" y="-135"/>
      <point x="216" y="-135" type="curve" smooth="yes"/>
      <point x="202" y="-135"/>
      <point x="177" y="-125"/>
      <point x="156" y="-107" type="curve"/>
      <point x="148" y="-110" type="line"/>
      <point x="137" y="-185" type="line"/>
      <point x="164" y="-200"/>
      <point x="194" y="-209"/>
      <point x="229" y="-209" type="curve" smooth="yes"/>
      <point x="298" y="-209"/>
      <point x="339" y="-173"/>
      <point x="339" y="-125" type="curve" smooth="yes"/>
      <point x="339" y="-101"/>
      <point x="329" y="-80"/>
      <point x="295" y="-62" type="curve" smooth="yes"/>
      <point x="261" y="-43" type="line"/>
      <point x="275" y="33" type="line"/>
    </contour>
    <component base="t" xOffset="-5"/>
  </outline>
</glyph>
<glyph name="tbar" format="1">
  <advance width="457"/>
  <unicode hex="0167"/>
  <outline>
    <contour>
      <point x="67" y="255" type="line"/>
      <point x="60" y="167" type="line"/>
      <point x="72" y="154" type="line"/>
      <point x="393" y="154" type="line"/>
      <point x="400" y="242" type="line"/>
      <point x="388" y="255" type="line"/>
    </contour>
    <component base="t"/>
  </outline>
</glyph>
<glyph name="uogonek" format="1">
  <advance width="566"/>
  <unicode hex="0173"/>
  <outline>
    <contour>
      <point x="386" y="80" type="line"/>
      <point x="318" y="-11" type="line" smooth="yes"/>
      <point x="295" y="-42"/>
      <point x="285" y="-73"/>
      <point x="285" y="-102" type="curve" smooth="yes"/>
      <point x="285" y="-156"/>
      <point x="324" y="-199"/>
      <point x="389" y="-199" type="curve" smooth="yes"/>
      <point x="426" y="-199"/>
      <point x="458" y="-185"/>
      <point x="500" y="-153" type="curve"/>
      <point x="488" y="-81" type="line"/>
      <point x="478" y="-81" type="line"/>
      <point x="457" y="-94"/>
      <point x="435" y="-101"/>
      <point x="417" y="-101" type="curve" smooth="yes"/>
      <point x="392" y="-101"/>
      <point x="381" y="-87"/>
      <point x="381" y="-68" type="curve" smooth="yes"/>
      <point x="381" y="-54"/>
      <point x="387" y="-39"/>
      <point x="397" y="-24" type="curve" smooth="yes"/>
      <point x="466" y="80" type="line"/>
    </contour>
    <component base="u"/>
  </outline>
</glyph>
<glyph name="uhorn" format="1">
  <advance width="576"/>
  <unicode hex="01B0"/>
  <outline>
    <contour>
      <point x="505" y="643"/>
      <point x="475" y="627"/>
      <point x="449" y="609" type="curve"/>
      <point x="446" y="596" type="line"/>
      <point x="461" y="586"/>
      <point x="470" y="570"/>
      <point x="470" y="550" type="curve" smooth="yes"/>
      <point x="470" y="523"/>
      <point x="458" y="513"/>
      <point x="424" y="513" type="curve"/>
      <point x="452" y="430" type="line"/>
      <point x="546" y="444"/>
      <point x="610" y="501"/>
      <point x="610" y="567" type="curve" smooth="yes"/>
      <point x="610" y="611"/>
      <point x="580" y="643"/>
      <point x="536" y="643" type="curve" smooth="yes"/>
    </contour>
    <component base="u" xOffset="-5"/>
    <contour>
      <point x="271" y="513" type="move" name="top"/>
    </contour>
  </outline>
</glyph>
<glyph name="oogonek" format="1">
  <advance width="565"/>
  <unicode hex="01EB"/>
  <outline>
    <contour>
      <point x="332" y="82" type="line"/>
      <point x="264" y="-9" type="line" smooth="yes"/>
      <point x="241" y="-40"/>
      <point x="231" y="-71"/>
      <point x="231" y="-100" type="curve" smooth="yes"/>
      <point x="231" y="-154"/>
      <point x="270" y="-197"/>
      <point x="335" y="-197" type="curve" smooth="yes"/>
      <point x="372" y="-197"/>
      <point x="404" y="-183"/>
      <point x="446" y="-151" type="curve"/>
      <point x="434" y="-79" type="line"/>
      <point x="424" y="-79" type="line"/>
      <point x="403" y="-92"/>
      <point x="381" y="-99"/>
      <point x="363" y="-99" type="curve" smooth="yes"/>
      <point x="338" y="-99"/>
      <point x="327" y="-85"/>
      <point x="327" y="-66" type="curve" smooth="yes"/>
      <point x="327" y="-52"/>
      <point x="333" y="-37"/>
      <point x="343" y="-22" type="curve" smooth="yes"/>
      <point x="412" y="82" type="line"/>
    </contour>
    <component base="o"/>
  </outline>
</glyph>
<glyph name="breve" format="1">
  <advance width="388"/>
  <unicode hex="02D8"/>
  <outline>
    <contour>
      <point x="305" y="733" type="line"/>
      <point x="286" y="693"/>
      <point x="244" y="670"/>
      <point x="195" y="670" type="curve" smooth="yes"/>
      <point x="146" y="670"/>
      <point x="104" y="693"/>
      <point x="83" y="733" type="curve"/>
      <point x="56" y="733" type="line"/>
      <point x="16" y="671" type="line"/>
      <point x="35" y="607"/>
      <point x="86" y="535"/>
      <point x="189" y="535" type="curve" smooth="yes"/>
      <point x="293" y="535"/>
      <point x="350" y="603"/>
      <point x="372" y="671" type="curve" smooth="yes"/>
      <point x="332" y="733" type="line"/>
    </contour>
    <contour>
      <point x="193" y="472" type="move" name="_top"/>
    </contour>
  </outline>
</glyph>
<glyph name="hungarumlaut" format="1">
  <advance width="388"/>
  <unicode hex="02DD"/>
  <outline>
    <contour>
      <point x="226" y="522" type="line"/>
      <point x="241" y="527" type="line"/>
      <point x="290" y="578"/>
      <point x="339" y="631"/>
      <point x="386" y="686" type="curve"/>
      <point x="383" y="700" type="line"/>
      <point x="293" y="763" type="line"/>
      <point x="280" y="759" type="line"/>
      <point x="244" y="694"/>
      <point x="207" y="631"/>
      <point x="168" y="568" type="curve"/>
    </contour>
    <contour>
      <point x="61" y="522" type="line"/>
      <point x="76" y="527" type="line"/>
      <point x="125" y="578"/>
      <point x="174" y="631"/>
      <point x="221" y="686" type="curve"/>
      <point x="218" y="700" type="line"/>
      <point x="128" y="763" type="line"/>
      <point x="115" y="759" type="line"/>
      <point x="79" y="694"/>
      <point x="42" y="631"/>
      <point x="3" y="568" type="curve"/>
    </contour>
    <contour>
      <point x="164" y="472" type="move" name="_top"/>
    </contour>
  </outline>
</glyph>
<glyph name="uni1E9E" format="1">
  <advance width="711"/>
  <unicode hex="1E9E"/>
  <outline>
    <contour>
      <point x="154" y="659"/>
      <point x="51" y="558"/>
      <point x="51" y="404" type="curve" smooth="yes"/>
      <point x="56" y="190" type="line"/>
      <point x="46" y="0" type="line"/>
      <point x="247" y="0" type="line"/>
      <point x="239" y="210" type="line"/>
      <point x="244" y="404" type="line"/>
      <point x="243" y="472"/>
      <point x="269" y="501"/>
      <point x="342" y="501" type="curve" smooth="yes"/>
      <point x="369" y="501"/>
      <point x="388" y="497"/>
      <point x="412" y="489" type="curve"/>
      <point x="306" y="332" type="line"/>
      <point x="311" y="308" type="line"/>
      <point x="467" y="222"/>
      <point x="507" y="188"/>
      <point x="507" y="162" type="curve" smooth="yes"/>
      <point x="507" y="147"/>
      <point x="495" y="137"/>
      <point x="473" y="137" type="curve" smooth="yes"/>
      <point x="436" y="137"/>
      <point x="381" y="164"/>
      <point x="326" y="212" type="curve"/>
      <point x="306" y="200" type="line"/>
      <point x="277" y="26" type="line"/>
      <point x="333" y="2"/>
      <point x="400" y="-12"/>
      <point x="462" y="-12" type="curve" smooth="yes"/>
      <point x="592" y="-12"/>
      <point x="706" y="49"/>
      <point x="706" y="185" type="curve" smooth="yes"/>
      <point x="706" y="278"/>
      <point x="653" y="310"/>
      <point x="541" y="392" type="curve"/>
      <point x="658" y="563" type="line"/>
      <point x="650" y="586" type="line"/>
      <point x="544" y="634"/>
      <point x="464" y="659"/>
      <point x="361" y="659" type="curve" smooth="yes"/>
    </contour>
  </outline>
</glyph>
<glyph name="odotbelow" format="1">
  <advance width="565"/>
  <unicode hex="1ECD"/>
  <outline>
    <component base="o"/>
    <component base="dotbelowcomb" xOffset="165"/>
    <contour>
      <point x="271" y="513" type="move" name="top"/>
    </contour>
  </outline>
</glyph>
<glyph name="quoteright" format="1">
  <advance width="253"/>
  <unicode hex="2019"/>
  <outline>
    <contour>
      <point x="114" y="642"/>
      <point x="72" y="616"/>
      <point x="34" y="588" type="curve"/>
      <point x="34" y="573" type="line"/>
      <point x="66" y="549"/>
      <point x="76" y="523"/>
      <point x="76" y="485" type="curve" smooth="yes"/>
      <point x="76" y="455"/>
      <point x="63" y="426"/>
      <point x="37" y="397" type="curve"/>
      <point x="40" y="385" type="line"/>
      <point x="105" y="343" type="line"/>
      <point x="182" y="414"/>
      <point x="219" y="477"/>
      <point x="219" y="543" type="curve" smooth="yes"/>
      <point x="219" y="595"/>
      <point x="201" y="631"/>
      <point x="159" y="659" type="curve"/>
    </contour>
  </outline>
</glyph>
<glyph name="guilsinglright" format="1">
  <advance width="260"/>
  <unicode hex="203A"/>
  <outline>
    <contour>
      <point x="26" y="381" type="line"/>
      <point x="22" y="364" type="line"/>
      <point x="102" y="234" type="line"/>
      <point x="22" y="103" type="line"/>
      <point x="26" y="86" type="line"/>
      <point x="117" y="39" type="line"/>
      <point x="242" y="223" type="line"/>
      <point x="242" y="250" type="line"/>
      <point x="117" y="428" type="line"/>
    </contour>
  </outline>
</glyph>
<glyph name="estimated" format="1">
  <advance width="787"/>
  <unicode hex="212E"/>
  <outline>
    <contour>
      <point x="201" y="651"/>
      <point x="35" y="503"/>
      <point x="35" y="319" type="curve" smooth="yes"/>
      <point x="35" y="136"/>
      <point x="201" y="-12"/>
      <point x="404" y="-12" type="curve" smooth="yes"/>
      <point x="522" y="-12"/>
      <point x="629" y="39"/>
      <point x="696" y="117" type="curve" smooth="yes"/>
      <point x="642" y="117" type="line" smooth="yes"/>
      <point x="585" y="50"/>
      <point x="500" y="8"/>
      <point x="405" y="8" type="curve" smooth="yes"/>
      <point x="316" y="8"/>
      <point x="235" y="45"/>
      <point x="179" y="105" type="curve" smooth="yes"/>
      <point x="174" y="111"/>
      <point x="170" y="118"/>
      <point x="170" y="126" type="curve" smooth="yes"/>
      <point x="170" y="307" type="line" smooth="yes"/>
      <point x="170" y="310"/>
      <point x="172" y="311"/>
      <point x="175" y="311" type="curve" smooth="yes"/>
      <point x="772" y="311" type="line"/>
      <point x="772" y="319" type="line" smooth="yes"/>
      <point x="772" y="503"/>
      <point x="607" y="651"/>
      <point x="404" y="651" type="curve" smooth="yes"/>
    </contour>
    <contour>
      <point x="492" y="631"/>
      <point x="571" y="595"/>
      <point x="628" y="538" type="curve" smooth="yes"/>
      <point x="634" y="532"/>
      <point x="638" y="525"/>
      <point x="638" y="516" type="curve" smooth="yes"/>
      <point x="638" y="334" type="line" smooth="yes"/>
      <point x="638" y="331"/>
      <point x="636" y="329"/>
      <point x="633" y="329" type="curve" smooth="yes"/>
      <point x="175" y="329" type="line" smooth="yes"/>
      <point x="172" y="329"/>
      <point x="170" y="331"/>
      <point x="170" y="334" type="curve" smooth="yes"/>
      <point x="170" y="512" type="line" smooth="yes"/>
      <point x="170" y="521"/>
      <point x="174" y="529"/>
      <point x="180" y="535" type="curve" smooth="yes"/>
      <point x="237" y="594"/>
      <point x="316" y="631"/>
      <point x="405" y="631" type="curve" smooth="yes"/>
    </contour>
  </outline>
</glyph>
<glyph name="partialdiff" format="1">
  <advance width="529"/>
  <unicode hex="2202"/>
  <outline>
    <contour>
      <point x="180" y="720" type="line"/>
      <point x="38" y="621" type="line"/>
      <point x="38" y="607" type="line"/>
      <point x="242" y="540"/>
      <point x="333" y="446"/>
      <point x="333" y="259" type="curve" smooth="yes"/>
      <point x="333" y="163"/>
      <point x="312" y="122"/>
      <point x="265" y="122" type="curve" smooth="yes"/>
      <point x="222" y="122"/>
      <point x="200" y="157"/>
      <point x="200" y="218" type="curve" smooth="yes"/>
      <point x="200" y="279"/>
      <point x="222" y="306"/>
      <point x="269" y="306" type="curve" smooth="yes"/>
      <point x="296" y="306"/>
      <point x="319" y="297"/>
      <point x="350" y="281" type="curve"/>
      <point x="321" y="473" type="line"/>
      <point x="280" y="435" type="line"/>
      <point x="258" y="444"/>
      <point x="239" y="448"/>
      <point x="217" y="448" type="curve" smooth="yes"/>
      <point x="87" y="448"/>
      <point x="16" y="332"/>
      <point x="16" y="219" type="curve" smooth="yes"/>
      <point x="16" y="101"/>
      <point x="92" y="-12"/>
      <point x="259" y="-12" type="curve" smooth="yes"/>
      <point x="426" y="-12"/>
      <point x="521" y="101"/>
      <point x="521" y="272" type="curve" smooth="yes"/>
      <point x="521" y="469"/>
      <point x="399" y="617"/>
      <point x="191" y="720" type="curve"/>
    </contour>
  </outline>
</glyph>
<glyph name="infinity" format="1">
  <advance width="480"/>
  <unicode hex="221E"/>
  <outline>
    <contour>
      <point x="292" y="424"/>
      <point x="252" y="396"/>
      <point x="229" y="364" type="curve"/>
      <point x="198" y="406"/>
      <point x="166" y="424"/>
      <point x="121" y="424" type="curve" smooth="yes"/>
      <point x="40" y="424"/>
      <point x="-16" y="365"/>
      <point x="-16" y="259" type="curve" smooth="yes"/>
      <point x="-16" y="158"/>
      <point x="35" y="92"/>
      <point x="125" y="92" type="curve" smooth="yes"/>
      <point x="181" y="92"/>
      <point x="223" y="117"/>
      <point x="247" y="152" type="curve"/>
      <point x="280" y="107"/>
      <point x="314" y="92"/>
      <point x="354" y="92" type="curve" smooth="yes"/>
      <point x="432" y="92"/>
      <point x="492" y="148"/>
      <point x="492" y="257" type="curve" smooth="yes"/>
      <point x="492" y="357"/>
      <point x="441" y="424"/>
      <point x="351" y="424" type="curve" smooth="yes"/>
    </contour>
    <contour>
      <point x="152" y="306"/>
      <point x="169" y="297"/>
      <point x="185" y="276" type="curve"/>
      <point x="171" y="241"/>
      <point x="154" y="216"/>
      <point x="126" y="216" type="curve" smooth="yes"/>
      <point x="104" y="216"/>
      <point x="90" y="230"/>
      <point x="90" y="260" type="curve" smooth="yes"/>
      <point x="90" y="289"/>
      <point x="104" y="306"/>
      <point x="132" y="306" type="curve" smooth="yes"/>
    </contour>
    <contour>
      <point x="372" y="300"/>
      <point x="386" y="286"/>
      <point x="386" y="257" type="curve" smooth="yes"/>
      <point x="386" y="226"/>
      <point x="371" y="209"/>
      <point x="345" y="209" type="curve" smooth="yes"/>
      <point x="324" y="209"/>
      <point x="307" y="219"/>
      <point x="292" y="240" type="curve"/>
      <point x="305" y="272"/>
      <point x="320" y="300"/>
      <point x="350" y="300" type="curve" smooth="yes"/>
    </contour>
  </outline>
</glyph>
<glyph name="D.ss01" format="1">
  <advance width="575"/>
  <outline>
    <contour>
      <point x="-100" y="448" type="line"/>
      <point x="675" y="448" type="line"/>
      <point x="675" y="513" type="line"/>
      <point x="-100" y="513" type="line"/>
    </contour>
    <contour>
      <point x="-100" y="0" type="line"/>
      <point x="675" y="0" type="line"/>
      <point x="675" y="65" type="line"/>
      <point x="-100" y="65" type="line"/>
    </contour>
    <component base="d" xOffset="12" yOffset="9" xScale="0.96" yScale="0.96"/>
  </outline>
</glyph>
<glyph name="V.ss01" format="1">
  <advance width="540"/>
  <outline>
    <contour>
      <point x="-100" y="448" type="line"/>
      <point x="640" y="448" type="line"/>
      <point x="640" y="513" type="line"/>
      <point x="-100" y="513" type="line"/>
    </contour>
    <contour>
      <point x="-100" y="0" type="line"/>
      <point x="640" y="0" type="line"/>
      <point x="640" y="65" type="line"/>
      <point x="-100" y="65" type="line"/>
    </contour>
    <component base="v" xOffset="15" yOffset="12" xScale="0.95" yScale="0.95"/>
  </outline>
</glyph>
<glyph name="X.ss01" format="1">
  <advance width="555"/>
  <outline>
    <contour>
      <point x="-100" y="448" type="line"/>
      <point x="655" y="448" type="line"/>
      <point x="655" y="513" type="line"/>
      <point x="-100" y="513" type="line"/>
    </contour>
    <contour>
      <point x="-100" y="0" type="line"/>
      <point x="655" y="0" type="line"/>
      <point x="655" y="65" type="line"/>
      <point x="-100" y="65" type="line"/>
    </contour>
    <component base="x" xOffset="37" yOffset="38" xScale="0.88" yScale="0.86"/>
  </outline>
</glyph>
<glyph name="brevegrave" format="1">
  <advance width="388"/>
  <outline>
    <contour>
      <point x="59" y="824" type="line"/>
      <point x="56" y="810" type="line"/>
      <point x="98" y="769"/>
      <point x="141" y="729"/>
      <point x="185" y="691" type="curve"/>
      <point x="200" y="686" type="line"/>
      <point x="258" y="731" type="line"/>
      <point x="225" y="779"/>
      <point x="192" y="827"/>
      <point x="161" y="877" type="curve"/>
      <point x="148" y="881" type="line"/>
    </contour>
    <component base="breve.cap" yOffset="-20"/>
    <contour>
      <point x="194" y="472" type="move" name="_top"/>
    </contour>
  </outline>
</glyph>
<glyph name="caron.cap" format="1">
  <advance width="388"/>
  <outline>
    <contour>
      <point x="311" y="732" type="line"/>
      <point x="272" y="712"/>
      <point x="232" y="692"/>
      <point x="193" y="672" type="curve"/>
      <point x="154" y="692"/>
      <point x="114" y="712"/>
      <point x="75" y="732" type="curve"/>
      <point x="57" y="732" type="line"/>
      <point x="23" y="656" type="line"/>
      <point x="80" y="617"/>
      <point x="131" y="578"/>
      <point x="176" y="537" type="curve"/>
      <point x="210" y="537" type="line"/>
      <point x="255" y="578"/>
      <point x="306" y="617"/>
      <point x="363" y="656" type="curve"/>
      <point x="329" y="732" type="line"/>
    </contour>
    <contour>
      <point x="193" y="472" type="move" name="_top"/>
    </contour>
  </outline>
</glyph>
<glyph name="d.sups" format="1">
  <advance width="386"/>
  <outline>
    <contour>
      <point x="211" y="795" type="line"/>
      <point x="213" y="652" type="line"/>
      <point x="202" y="652"/>
      <point x="194" y="653"/>
      <point x="188" y="653" type="curve" smooth="yes"/>
      <point x="82" y="653"/>
      <point x="14" y="595"/>
      <point x="14" y="480" type="curve" smooth="yes"/>
      <point x="14" y="380"/>
      <point x="67" y="315"/>
      <point x="157" y="315" type="curve"/>
      <point x="179" y="328"/>
      <point x="200" y="342"/>
      <point x="219" y="361" type="curve"/>
      <point x="224" y="361" type="line"/>
      <point x="239" y="325"/>
      <point x="259" y="316"/>
      <point x="292" y="316" type="curve" smooth="yes"/>
      <point x="317" y="316"/>
      <point x="339" y="321"/>
      <point x="360" y="336" type="curve"/>
      <point x="374" y="407" type="line"/>
      <point x="365" y="415" type="line"/>
      <point x="360" y="413"/>
      <point x="356" y="413"/>
      <point x="353" y="413" type="curve" smooth="yes"/>
      <point x="346" y="413"/>
      <point x="343" y="418"/>
      <point x="343" y="428" type="curve" smooth="yes"/>
      <point x="348" y="804" type="line"/>
    </contour>
    <contour>
      <point x="195" y="561"/>
      <point x="204" y="560"/>
      <point x="214" y="557" type="curve"/>
      <point x="217" y="432" type="line"/>
      <point x="204" y="423"/>
      <point x="193" y="418"/>
      <point x="182" y="418" type="curve" smooth="yes"/>
      <point x="156" y="418"/>
      <point x="143" y="440"/>
      <point x="143" y="497" type="curve" smooth="yes"/>
      <point x="143" y="549"/>
      <point x="155" y="561"/>
      <point x="186" y="561" type="curve" smooth="yes"/>
    </contour>
    <contour>
      <point x="195" y="164" type="move" name="center"/>
    </contour>
  </outline>
</glyph>
<glyph name="four.tf" format="1">
  <advance width="475"/>
  <outline>
    <contour>
      <point x="219" y="586" type="line"/>
      <point x="2" y="248" type="line"/>
      <point x="2" y="125" type="line"/>
      <point x="14" y="109" type="line"/>
      <point x="124" y="113" type="line"/>
      <point x="329" y="113" type="line"/>
      <point x="458" y="109" type="line"/>
      <point x="466" y="245" type="line"/>
      <point x="455" y="262" type="line"/>
      <point x="167" y="262" type="line"/>
      <point x="228" y="373" type="line"/>
      <point x="239" y="373" type="line"/>
      <point x="240" y="225" type="line"/>
      <point x="232" y="3" type="line"/>
      <point x="242" y="-9" type="line"/>
      <point x="395" y="0" type="line"/>
      <point x="405" y="13" type="line"/>
      <point x="393" y="187" type="line"/>
      <point x="399" y="586" type="line"/>
    </contour>
  </outline>
</glyph>
<glyph name="h.sups" format="1">
  <advance width="398"/>
  <outline>
    <contour>
      <point x="220" y="639"/>
      <point x="195" y="622"/>
      <point x="172" y="600" type="curve"/>
      <point x="151" y="600" type="line"/>
      <point x="150" y="524" type="line"/>
      <point x="170" y="537"/>
      <point x="185" y="542"/>
      <point x="200" y="542" type="curve" smooth="yes"/>
      <point x="221" y="542"/>
      <point x="233" y="529"/>
      <point x="233" y="502" type="curve"/>
      <point x="225" y="322" type="line"/>
      <point x="364" y="322" type="line"/>
      <point x="358" y="467" type="line"/>
      <point x="361" y="561" type="line" smooth="yes"/>
      <point x="363" y="618"/>
      <point x="325" y="650"/>
      <point x="254" y="650" type="curve"/>
    </contour>
    <contour>
      <point x="202" y="435" type="move"/>
    </contour>
    <contour>
      <point x="35" y="795" type="line"/>
      <point x="39" y="453" type="line"/>
      <point x="33" y="322" type="line"/>
      <point x="172" y="322" type="line"/>
      <point x="166" y="467" type="line"/>
      <point x="172" y="804" type="line"/>
    </contour>
    <contour>
      <point x="197" y="164" type="move" name="center"/>
    </contour>
    <contour>
      <point x="102" y="457" type="move" name="top"/>
    </contour>
  </outline>
</glyph>
<glyph name="j.sups" format="1">
  <advance width="231"/>
  <outline>
    <contour>
      <point x="74" y="825"/>
      <point x="45" y="796"/>
      <point x="45" y="751" type="curve" smooth="yes"/>
      <point x="45" y="708"/>
      <point x="69" y="683"/>
      <point x="113" y="683" type="curve" smooth="yes"/>
      <point x="157" y="683"/>
      <point x="185" y="712"/>
      <point x="185" y="757" type="curve" smooth="yes"/>
      <point x="185" y="799"/>
      <point x="161" y="825"/>
      <point x="118" y="825" type="curve" smooth="yes"/>
    </contour>
    <contour>
      <point x="62" y="643" type="line"/>
      <point x="12" y="643" type="line"/>
      <point x="5" y="547" type="line"/>
      <point x="12" y="539" type="line"/>
      <point x="60" y="541" type="line"/>
      <point x="61" y="453" type="line"/>
      <point x="61" y="344" type="line" smooth="yes"/>
      <point x="61" y="303"/>
      <point x="46" y="276"/>
      <point x="12" y="259" type="curve"/>
      <point x="12" y="248" type="line"/>
      <point x="58" y="187" type="line"/>
      <point x="151" y="222"/>
      <point x="194" y="273"/>
      <point x="194" y="347" type="curve"/>
      <point x="188" y="467" type="line"/>
      <point x="195" y="646" type="line"/>
      <point x="191" y="649" type="line"/>
    </contour>
  </outline>
</glyph>
<glyph name="macron.i" format="1">
  <advance width="388"/>
  <outline>
    <contour>
      <point x="75" y="691" type="line"/>
      <point x="66" y="584" type="line"/>
      <point x="78" y="571" type="line"/>
      <point x="314" y="571" type="line"/>
      <point x="323" y="678" type="line"/>
      <point x="311" y="691" type="line"/>
    </contour>
    <contour>
      <point x="195" y="472" type="move" name="_top"/>
    </contour>
  </outline>
</glyph>
<glyph name="r.sups" format="1">
  <advance width="276"/>
  <outline>
    <contour>
      <point x="35" y="639" type="line"/>
      <point x="39" y="453" type="line"/>
      <point x="33" y="322" type="line"/>
      <point x="172" y="322" type="line"/>
      <point x="166" y="467" type="line"/>
      <point x="166" y="648" type="line"/>
    </contour>
    <contour>
      <point x="217" y="647"/>
      <point x="192" y="625"/>
      <point x="172" y="589" type="curve"/>
      <point x="152" y="589" type="line"/>
      <point x="152" y="487" type="line"/>
      <point x="178" y="514"/>
      <point x="201" y="525"/>
      <point x="231" y="525" type="curve" smooth="yes"/>
      <point x="239" y="525"/>
      <point x="248" y="524"/>
      <point x="258" y="522" type="curve"/>
      <point x="271" y="526" type="line"/>
      <point x="271" y="646" type="line"/>
      <point x="264" y="647"/>
      <point x="259" y="647"/>
      <point x="255" y="647" type="curve" smooth="yes"/>
    </contour>
    <contour>
      <point x="104" y="0" type="move" name="bottom"/>
    </contour>
    <contour>
      <point x="158" y="327" type="move" name="top"/>
    </contour>
  </outline>
</glyph>
<glyph name="seven.dnom" format="1">
  <advance width="324"/>
  <outline>
    <contour>
      <point x="8" y="280" type="line"/>
      <point x="15" y="270" type="line"/>
      <point x="95" y="278" type="line"/>
      <point x="162" y="278" type="line"/>
      <point x="41" y="44" type="line"/>
      <point x="50" y="22" type="line"/>
      <point x="168" y="-8" type="line"/>
      <point x="219" y="120" type="line"/>
      <point x="305" y="293" type="line"/>
      <point x="305" y="394" type="line"/>
      <point x="264" y="393" type="line"/>
      <point x="119" y="393" type="line"/>
      <point x="17" y="396" type="line"/>
    </contour>
  </outline>
</glyph>
<glyph name="three.tosf" format="1">
  <advance width="475"/>
  <outline>
    <contour>
      <point x="159" y="524"/>
      <point x="84" y="504"/>
      <point x="20" y="469" type="curve"/>
      <point x="48" y="334" type="line"/>
      <point x="68" y="334" type="line"/>
      <point x="112" y="353"/>
      <point x="149" y="366"/>
      <point x="183" y="366" type="curve" smooth="yes"/>
      <point x="218" y="366"/>
      <point x="234" y="356"/>
      <point x="234" y="333" type="curve" smooth="yes"/>
      <point x="234" y="301"/>
      <point x="199" y="284"/>
      <point x="157" y="282" type="curve" smooth="yes"/>
      <point x="110" y="280" type="line"/>
      <point x="105" y="146" type="line"/>
      <point x="113" y="134" type="line"/>
      <point x="199" y="134" type="line"/>
      <point x="236" y="134"/>
      <point x="252" y="123"/>
      <point x="252" y="101" type="curve" smooth="yes"/>
      <point x="252" y="69"/>
      <point x="222" y="54"/>
      <point x="160" y="54" type="curve" smooth="yes"/>
      <point x="121" y="54"/>
      <point x="81" y="61"/>
      <point x="35" y="74" type="curve"/>
      <point x="22" y="62" type="line"/>
      <point x="32" y="-82" type="line"/>
      <point x="69" y="-89"/>
      <point x="115" y="-93"/>
      <point x="154" y="-93" type="curve" smooth="yes"/>
      <point x="325" y="-93"/>
      <point x="440" y="-18"/>
      <point x="440" y="94" type="curve" smooth="yes"/>
      <point x="440" y="163"/>
      <point x="408" y="206"/>
      <point x="341" y="229" type="curve"/>
      <point x="341" y="235" type="line"/>
      <point x="414" y="276"/>
      <point x="434" y="333"/>
      <point x="434" y="375" type="curve" smooth="yes"/>
      <point x="434" y="464"/>
      <point x="352" y="524"/>
      <point x="229" y="524" type="curve" smooth="yes"/>
    </contour>
  </outline>
</glyph>
<glyph name="two.dnom" format="1">
  <advance width="375"/>
  <outline>
    <contour>
      <point x="138" y="400"/>
      <point x="81" y="382"/>
      <point x="22" y="350" type="curve"/>
      <point x="47" y="242" type="line"/>
      <point x="63" y="242" type="line"/>
      <point x="93" y="267"/>
      <point x="130" y="282"/>
      <point x="154" y="282" type="curve" smooth="yes"/>
      <point x="172" y="282"/>
      <point x="180" y="274"/>
      <point x="180" y="262" type="curve" smooth="yes"/>
      <point x="180" y="240"/>
      <point x="153" y="213"/>
      <point x="116" y="176" type="curve" smooth="yes"/>
      <point x="26" y="87" type="line"/>
      <point x="26" y="3" type="line"/>
      <point x="33" y="-2" type="line"/>
      <point x="59" y="0" type="line"/>
      <point x="229" y="0" type="line"/>
      <point x="337" y="-6" type="line"/>
      <point x="353" y="107" type="line"/>
      <point x="346" y="116" type="line"/>
      <point x="274" y="109" type="line"/>
      <point x="218" y="109" type="line"/>
      <point x="216" y="112" type="line"/>
      <point x="251" y="152" type="line" smooth="yes"/>
      <point x="307" y="217"/>
      <point x="328" y="259"/>
      <point x="328" y="297" type="curve" smooth="yes"/>
      <point x="328" y="365"/>
      <point x="267" y="400"/>
      <point x="192" y="400" type="curve" smooth="yes"/>
    </contour>
  </outline>
</glyph>
<glyph name="y.sups" format="1">
  <advance width="324"/>
  <outline>
    <contour>
      <point x="-15" y="645" type="line"/>
      <point x="107" y="322" type="line"/>
      <point x="69" y="303"/>
      <point x="29" y="291"/>
      <point x="-14" y="285" type="curve"/>
      <point x="-19" y="273" type="line"/>
      <point x="-3" y="243"/>
      <point x="16" y="214"/>
      <point x="41" y="190" type="curve"/>
      <point x="51" y="189" type="line"/>
      <point x="164" y="228"/>
      <point x="207" y="267"/>
      <point x="237" y="358" type="curve" smooth="yes"/>
      <point x="335" y="646" type="line"/>
      <point x="218" y="646" type="line"/>
      <point x="205" y="574" type="line"/>
      <point x="172" y="456" type="line"/>
      <point x="165" y="456" type="line"/>
      <point x="128" y="587" type="line"/>
      <point x="117" y="649" type="line"/>
    </contour>
    <contour>
      <point x="167" y="327" type="move" name="top"/>
    </contour>
  </outline>
</glyph>
<glyph name="z.sups" format="1">
  <advance width="320"/>
  <outline>
    <contour>
      <point x="16" y="568" type="line"/>
      <point x="23" y="559" type="line"/>
      <point x="90" y="564" type="line"/>
      <point x="151" y="564" type="line"/>
      <point x="19" y="399" type="line"/>
      <point x="19" y="318" type="line"/>
      <point x="79" y="322" type="line"/>
      <point x="194" y="322" type="line"/>
      <point x="295" y="320" type="line"/>
      <point x="304" y="401" type="line"/>
      <point x="296" y="410" type="line"/>
      <point x="230" y="405" type="line"/>
      <point x="165" y="405" type="line"/>
      <point x="295" y="567" type="line"/>
      <point x="295" y="647" type="line"/>
      <point x="248" y="646" type="line"/>
      <point x="109" y="646" type="line"/>
      <point x="25" y="648" type="line"/>
    </contour>
    <contour>
      <point x="159" y="327" type="move" name="top"/>
    </contour>
  </outline>
</glyph>
